<svg xmlns="http://www.w3.org/2000/svg" xmlns:xlink="http://www.w3.org/1999/xlink" width="256" height="256" viewBox="30 30 70 70">
    <path fill="#ffffff78" d="M40 90 L60 40 L90 70 Z" />
    
    <g style="transform-origin: center; transform: scale(0.5) translate(50px, 10px);">
        <rect width="68" height="68" x="31" y="31" rx="9.5" ry="9.5"
            fill="#6FC4A9" stroke="#347E67" stroke-width="2px"/>

        <path fill="#64B89D"
            d="M81.35 91.95q1.55-1.6 1.55-3.9 0-2.25-1.55-3.85-1.6-1.6-3.9-1.6-2.25 0-3.85 1.6T72 88.05q0 2.3 1.6 3.9 1.6 1.55 3.85 1.55 2.3 0 3.9-1.55m8.2-.75q.8-.8.8-1.9 0-1.1-.8-1.9-.75-.75-1.9-.75-1.1 0-1.85.75-.8.8-.8 1.9 0 1.1.8 1.9.75.8 1.85.8 1.15 0 1.9-.8M86.1 79.95q-.85.85-.85 2.05 0 1.2.85 2.05.85.85 2.05.85 1.2 0 2.05-.85.85-.85.85-2.05 0-1.2-.85-2.05-.85-.85-2.05-.85-1.2 0-2.05.85z" />
        
        <path fill="#89D9C0"
            d="M88.35 34q9.4 0 9.65 9.15v-1.5Q98 32 88.35 32h-46.7Q32 32 32 41.65v1.5Q32.25 34 41.65 34h46.7z" />

            <path fill="#347E67"
        d="M59.95 61.3q0-2.6-1.95-4.55-1.85-1.85-4.45-1.85-2.75 0-4.7 1.85-1.8 1.95-1.8 4.55 0 2.6 1.8 4.45 1.95 1.95 4.7 1.95 2.6 0 4.45-1.95 1.95-1.85 1.95-4.45m12.3 9.3q-.5.2-.65.7-.5 1.2-1.7 2.15-2.05 1.6-4.9 1.6-3 0-5.05-1.6-1.15-.9-1.55-2.05-.1-.55-.55-.75-.55-.25-1.15-.1-.5.1-.7.65-.25.45-.1.95.5 1.9 2.45 3.35 1.238.968 2.7 1.5 1.806.65 3.95.65 2.09 0 3.85-.65 1.462-.532 2.7-1.5 1.75-1.45 2.55-3.2.15-.5 0-1.05-.35-.5-.8-.65-.5-.25-1.05 0m8.8-4.85Q83 63.9 83 61.3t-1.95-4.55q-1.9-1.85-4.5-1.85-2.75 0-4.7 1.85-1.8 1.95-1.8 4.55 0 2.6 1.8 4.45 1.95 1.95 4.7 1.95 2.6 0 4.5-1.95z"/>
    </g>
</svg>